<mxfile host="app.diagrams.net" modified="2023-04-19T10:26:15.772Z" agent="Mozilla/5.0 (Windows NT 10.0; Win64; x64) AppleWebKit/537.36 (KHTML, like Gecko) Chrome/112.0.0.0 Safari/537.36" etag="vkngD4vs-p2Vfaegf9FH" version="21.1.8" type="device">
  <diagram id="C5RBs43oDa-KdzZeNtuy" name="Page-1">
    <mxGraphModel dx="1050" dy="541" grid="1" gridSize="10" guides="1" tooltips="1" connect="1" arrows="1" fold="1" page="1" pageScale="1" pageWidth="827" pageHeight="1169" math="0" shadow="0">
      <root>
        <mxCell id="WIyWlLk6GJQsqaUBKTNV-0" />
        <mxCell id="WIyWlLk6GJQsqaUBKTNV-1" parent="WIyWlLk6GJQsqaUBKTNV-0" />
        <mxCell id="7M7wxERQtDbhPmmRxwe6-0" value="Animals" style="rounded=0;whiteSpace=wrap;html=1;" vertex="1" parent="WIyWlLk6GJQsqaUBKTNV-1">
          <mxGeometry x="370" y="100" width="120" height="60" as="geometry" />
        </mxCell>
        <mxCell id="7M7wxERQtDbhPmmRxwe6-4" style="edgeStyle=orthogonalEdgeStyle;rounded=0;orthogonalLoop=1;jettySize=auto;html=1;entryX=0;entryY=0.5;entryDx=0;entryDy=0;" edge="1" parent="WIyWlLk6GJQsqaUBKTNV-1" source="7M7wxERQtDbhPmmRxwe6-1" target="7M7wxERQtDbhPmmRxwe6-0">
          <mxGeometry relative="1" as="geometry" />
        </mxCell>
        <mxCell id="7M7wxERQtDbhPmmRxwe6-1" value="HomeAnimals" style="rounded=0;whiteSpace=wrap;html=1;" vertex="1" parent="WIyWlLk6GJQsqaUBKTNV-1">
          <mxGeometry x="120" y="160" width="160" height="60" as="geometry" />
        </mxCell>
        <mxCell id="7M7wxERQtDbhPmmRxwe6-3" style="edgeStyle=orthogonalEdgeStyle;rounded=0;orthogonalLoop=1;jettySize=auto;html=1;" edge="1" parent="WIyWlLk6GJQsqaUBKTNV-1" source="7M7wxERQtDbhPmmRxwe6-2" target="7M7wxERQtDbhPmmRxwe6-0">
          <mxGeometry relative="1" as="geometry" />
        </mxCell>
        <mxCell id="7M7wxERQtDbhPmmRxwe6-2" value="PackAnimals" style="rounded=0;whiteSpace=wrap;html=1;" vertex="1" parent="WIyWlLk6GJQsqaUBKTNV-1">
          <mxGeometry x="570" y="160" width="160" height="60" as="geometry" />
        </mxCell>
        <mxCell id="7M7wxERQtDbhPmmRxwe6-8" style="edgeStyle=orthogonalEdgeStyle;rounded=0;orthogonalLoop=1;jettySize=auto;html=1;entryX=0.373;entryY=1.043;entryDx=0;entryDy=0;entryPerimeter=0;" edge="1" parent="WIyWlLk6GJQsqaUBKTNV-1" source="7M7wxERQtDbhPmmRxwe6-5" target="7M7wxERQtDbhPmmRxwe6-1">
          <mxGeometry relative="1" as="geometry" />
        </mxCell>
        <mxCell id="7M7wxERQtDbhPmmRxwe6-5" value="Dog" style="rounded=0;whiteSpace=wrap;html=1;" vertex="1" parent="WIyWlLk6GJQsqaUBKTNV-1">
          <mxGeometry x="20" y="280" width="100" height="40" as="geometry" />
        </mxCell>
        <mxCell id="7M7wxERQtDbhPmmRxwe6-9" style="edgeStyle=orthogonalEdgeStyle;rounded=0;orthogonalLoop=1;jettySize=auto;html=1;entryX=0.5;entryY=1;entryDx=0;entryDy=0;" edge="1" parent="WIyWlLk6GJQsqaUBKTNV-1" source="7M7wxERQtDbhPmmRxwe6-6" target="7M7wxERQtDbhPmmRxwe6-1">
          <mxGeometry relative="1" as="geometry" />
        </mxCell>
        <mxCell id="7M7wxERQtDbhPmmRxwe6-6" value="Cat" style="rounded=0;whiteSpace=wrap;html=1;" vertex="1" parent="WIyWlLk6GJQsqaUBKTNV-1">
          <mxGeometry x="150" y="280" width="100" height="40" as="geometry" />
        </mxCell>
        <mxCell id="7M7wxERQtDbhPmmRxwe6-10" style="edgeStyle=orthogonalEdgeStyle;rounded=0;orthogonalLoop=1;jettySize=auto;html=1;entryX=0.628;entryY=1.043;entryDx=0;entryDy=0;entryPerimeter=0;" edge="1" parent="WIyWlLk6GJQsqaUBKTNV-1" source="7M7wxERQtDbhPmmRxwe6-7" target="7M7wxERQtDbhPmmRxwe6-1">
          <mxGeometry relative="1" as="geometry" />
        </mxCell>
        <mxCell id="7M7wxERQtDbhPmmRxwe6-7" value="Hamster" style="rounded=0;whiteSpace=wrap;html=1;" vertex="1" parent="WIyWlLk6GJQsqaUBKTNV-1">
          <mxGeometry x="280" y="280" width="100" height="40" as="geometry" />
        </mxCell>
        <mxCell id="7M7wxERQtDbhPmmRxwe6-15" style="edgeStyle=orthogonalEdgeStyle;rounded=0;orthogonalLoop=1;jettySize=auto;html=1;entryX=0.5;entryY=1;entryDx=0;entryDy=0;" edge="1" parent="WIyWlLk6GJQsqaUBKTNV-1" source="7M7wxERQtDbhPmmRxwe6-12" target="7M7wxERQtDbhPmmRxwe6-2">
          <mxGeometry relative="1" as="geometry" />
        </mxCell>
        <mxCell id="7M7wxERQtDbhPmmRxwe6-12" value="Camel" style="rounded=0;whiteSpace=wrap;html=1;" vertex="1" parent="WIyWlLk6GJQsqaUBKTNV-1">
          <mxGeometry x="600" y="280" width="100" height="40" as="geometry" />
        </mxCell>
        <mxCell id="7M7wxERQtDbhPmmRxwe6-16" style="edgeStyle=orthogonalEdgeStyle;rounded=0;orthogonalLoop=1;jettySize=auto;html=1;entryX=0.36;entryY=0.99;entryDx=0;entryDy=0;entryPerimeter=0;" edge="1" parent="WIyWlLk6GJQsqaUBKTNV-1" source="7M7wxERQtDbhPmmRxwe6-13" target="7M7wxERQtDbhPmmRxwe6-2">
          <mxGeometry relative="1" as="geometry" />
        </mxCell>
        <mxCell id="7M7wxERQtDbhPmmRxwe6-13" value="Horse" style="rounded=0;whiteSpace=wrap;html=1;" vertex="1" parent="WIyWlLk6GJQsqaUBKTNV-1">
          <mxGeometry x="470" y="280" width="100" height="40" as="geometry" />
        </mxCell>
        <mxCell id="7M7wxERQtDbhPmmRxwe6-17" style="edgeStyle=orthogonalEdgeStyle;rounded=0;orthogonalLoop=1;jettySize=auto;html=1;entryX=0.635;entryY=1.003;entryDx=0;entryDy=0;entryPerimeter=0;" edge="1" parent="WIyWlLk6GJQsqaUBKTNV-1" source="7M7wxERQtDbhPmmRxwe6-14" target="7M7wxERQtDbhPmmRxwe6-2">
          <mxGeometry relative="1" as="geometry" />
        </mxCell>
        <mxCell id="7M7wxERQtDbhPmmRxwe6-14" value="Donkey" style="rounded=0;whiteSpace=wrap;html=1;" vertex="1" parent="WIyWlLk6GJQsqaUBKTNV-1">
          <mxGeometry x="730" y="280" width="100" height="40" as="geometry" />
        </mxCell>
      </root>
    </mxGraphModel>
  </diagram>
</mxfile>
